<?xml version="1.0" encoding="UTF-8"?>
<svg xmlns="http://www.w3.org/2000/svg" xmlns:xlink="http://www.w3.org/1999/xlink" width="50pt" height="50pt" viewBox="0 0 50 50" version="1.1">
<g id="surface1">
<path style=" stroke:none;fill-rule:nonzero;fill:rgb(100%,100%,100%);fill-opacity:1;" d="M 46.554688 21.15625 L 25.714844 0.304688 C 25.515625 0.109375 25.253906 0 24.976562 0 C 24.699219 0 24.433594 0.109375 24.238281 0.304688 L 3.460938 21.15625 C 3.160156 21.453125 3.074219 21.902344 3.234375 22.292969 C 3.398438 22.679688 3.777344 22.933594 4.195312 22.933594 L 15.65625 22.933594 L 15.65625 48.976562 C 15.65625 49.550781 16.121094 50.015625 16.695312 50.015625 L 33.363281 50.015625 C 33.9375 50.015625 34.40625 49.550781 34.40625 48.976562 L 34.40625 22.933594 L 45.820312 22.933594 C 46.242188 22.933594 46.621094 22.679688 46.78125 22.289062 C 46.945312 21.898438 46.851562 21.453125 46.554688 21.15625 Z M 46.554688 21.15625 "/>
</g>
</svg>
